# xmcd CD database file
#
# Track frame offsets:
#	192
#	18510
#	37412
#
# Disc length: 843 seconds
#
# Revision: 0
# Processed by: cddbd v1.4PL0 Copyright (c) Steve Scherf et al.
# Submitted via: CDex 1.40Beta8
#
DISCID=23034903
DTITLE=Golden Palaminos - These Days - Promo
DYEAR=1900
DGENRE=Country
TTITLE0=These Days (Single Edit)
TTITLE1=These Days (LP Version)
TTITLE2=These Days (Extended)
EXTD=ID3G: 2
EXTT0=
EXTT1=
EXTT2=
PLAYORDER=
